<svg width="67" height="70" viewBox="0 0 67 70" fill="none" xmlns="http://www.w3.org/2000/svg">
<g clip-path="url(#clip0_308_31205)">
<path d="M34.6224 6.29152C34.6698 4.99717 33.6578 3.90083 32.3633 3.94528C26.5416 4.14518 20.8606 5.87831 15.9046 8.98809C10.2849 12.5143 5.85719 17.6474 3.19695 23.7203C0.536711 29.7931 -0.233013 36.5248 0.987829 43.0404C2.20867 49.5559 5.36362 55.554 10.0426 60.255C14.7215 64.9559 20.7081 68.1424 27.2242 69.4001C33.7402 70.6578 40.4844 69.9286 46.5801 67.3074C52.6758 64.6861 57.841 60.2939 61.4044 54.7018C64.5461 49.7716 66.3146 44.1096 66.5499 38.2979C66.6023 37.0024 65.5107 35.9829 64.2147 36.0225C62.9186 36.0622 61.9102 37.1467 61.8425 38.4417C61.5879 43.3113 60.0786 48.0475 57.443 52.1835C54.3854 56.9818 49.9535 60.7504 44.7232 62.9995C39.4929 65.2487 33.7062 65.8743 28.1151 64.7952C22.5241 63.716 17.3874 60.9819 13.3727 56.9483C9.35801 52.9148 6.65095 47.7682 5.60343 42.1776C4.5559 36.587 5.21635 30.811 7.49893 25.6003C9.78151 20.3895 13.5806 15.9851 18.4025 12.9595C22.5606 10.3504 27.3135 8.87072 32.1924 8.64599C33.4861 8.5864 34.5751 7.58572 34.6224 6.29152Z" fill="#2D3292"/>
<path d="M31.2012 41.9723L59.5523 13.9611C60.5596 12.9659 62.1705 12.936 63.2139 13.8933C64.3357 14.9225 64.3644 16.6822 63.2767 17.7474L31.2012 49.1579L17.2206 35.4475C16.2882 34.5331 16.2808 33.0337 17.2041 32.1102C18.0958 31.2184 19.5326 31.19 20.4588 32.0459L31.2012 41.9723Z" fill="#2D3292"/>
</g>
<defs>
<clipPath id="clip0_308_31205">
<rect width="67" height="70" fill="white"/>
</clipPath>
</defs>
</svg>
